{"title":"EXCLUSIVE----Sengoku Majin GoShogun PACK---JAP, ITA, RUS, EN(5)","uid":6364167,"size":18680626361,"categoryP":"other","categoryS":"other","magnet":"?xt=urn:btih:9edf67f8cb9230e7bcaa753eb38d3ec72b603fc4&amp;dn=EXCLUSIVE----Sengoku+Majin+GoShogun+PACK---JAP%2C+ITA%2C+RUS%2C+EN%285%29&amp;tr=udp%3A%2F%2Ftracker.openbittorrent.com%3A80&amp;tr=udp%3A%2F%2Fopen.demonii.com%3A1337&amp;tr=udp%3A%2F%2Ftracker.coppersurfer.tk%3A6969&amp;tr=udp%3A%2F%2Fexodus.desync.com%3A6969","seeders":0,"leechers":2,"uploader":"eltigre4jc","files":88,"time":1304444331,"description":"FINALLY, AFTER MANY YEARS------SENGOKU MAJIN GOSHOGUN----PACK\nGoShogun ( Sengoku Majin GoShogun?) was a super robot anime series produced in 1981 and aired in 1982 in Japan. It is variously referred to in English as \\\\\\\\\\\\\\&quot;Demon God of the War-Torn Land GoShogun\\\\\\\\\\\\\\&quot;, \\\\\\\\\\\\\\&quot;Warring Demon God GoShogun\\\\\\\\\\\\\\&quot;, \\\\\\\\\\\\\\&quot;Civil War Devil-God GoShogun\\\\\\\\\\\\\\&quot; and \\\\\\\\\\\\\\&quot;Macron 1\\\\\\\\\\\\\\&quot;.\nthe pack includes:\n\n------26 episodes japanese--------\n\nFormat : AVI\nFormat/Info : Audio Video Interleave\nFile size : 249 MiB\nDuration : 24mn 9s\nOverall bit rate : 1 439 Kbps\nWriting library : This file was made by AviUtl 0.99.\n\nVideo\nID : 0\nFormat : MPEG-4 Visual\nFormat settings, BVOP : Yes\nFormat settings, QPel : No\nFormat settings, GMC : No warppoints\nFormat settings, Matrix : Default (H.263)\nMuxing mode : Packed bitstream\nCodec ID : DX50\nCodec ID/Hint : DivX 5\nDuration : 24mn 9s\nBit rate : 1 301 Kbps\nWidth : 640 pixels\nHeight : 480 pixels\nDisplay aspect ratio : 4:3\nFrame rate : 23.976 fps\nColor space : YUV\nChroma subsampling : 4:2:0\nBit depth : 8 bits\nScan type : Progressive\nCompression mode : Lossy\nBits/(Pixel*Frame) : 0.177\nStream size : 225 MiB (90%)\nWriting library : DivX 5.0.5 (UTC 2003-04-24)\n\nAudio\nID : 1\nFormat : MPEG Audio\nFormat version : Version 1\nFormat profile : Layer 3\nMode : Joint stereo\nMode extension : MS Stereo\nCodec ID : 55\nCodec ID/Hint : MP3\nDuration : 24mn 9s\nBit rate mode : Constant\nBit rate : 128 Kbps\nChannel(s) : 2 channels\nSampling rate : 48.0 KHz\nCompression mode : Lossy\nStream size : 22.1 MiB (9%)\nAlignment : Split accross interleaves\nInterleave, duration : 33 ms (0.80 video frame)\nInterleave, preload duration : 33 ms\nWriting library : LAME3.92\nEncoding settings : -m j -V 4 -q 5 -b 128\n**************************************************************\n\n--------------------26 episodes italian dubbed--------------------\nFormat : AVI\nFormat/Info : Audio Video Interleave\nFile size : 216 MiB\nDuration : 19mn 58s\nOverall bit rate : 1 511 Kbps\nWriting library : VirtualDub build 23604/release\n\nVideo\nID : 0\nFormat : MPEG-4 Visual\nFormat settings, BVOP : Yes\nFormat settings, QPel : No\nFormat settings, GMC : No warppoints\nFormat settings, Matrix : Default (H.263)\nMuxing mode : Packed bitstream\nCodec ID : DX50\nCodec ID/Hint : DivX 5\nDuration : 19mn 58s\nBit rate : 1 373 Kbps\nWidth : 640 pixels\nHeight : 480 pixels\nDisplay aspect ratio : 4:3\nFrame rate : 25.000 fps\nColor space : YUV\nChroma subsampling : 4:2:0\nBit depth : 8 bits\nScan type : Progressive\nCompression mode : Lossy\nBits/(Pixel*Frame) : 0.179\nStream size : 196 MiB (91%)\nWriting library : DivX 5.0.5 (UTC 2003-04-24)\n\nAudio\nID : 1\nFormat : MPEG Audio\nFormat version : Version 1\nFormat profile : Layer 3\nMode : Joint stereo\nMode extension : MS Stereo\nCodec ID : 55\nCodec ID/Hint : MP3\nDuration : 19mn 54s\nBit rate mode : Constant\nBit rate : 128 Kbps\nChannel(s) : 2 channels\nSampling rate : 44.1 KHz\nCompression mode : Lossy\nStream size : 18.2 MiB (8%)\nAlignment : Split accross interleaves\nInterleave, duration : 40 ms (1.00 video frame)\nInterleave, preload duration : 500 ms\n**************************************************************\n\n---------------------26 episodes russian dubbed--------------------\nFormat : AVI\nFormat/Info : Audio Video Interleave\nFile size : 186 MiB\nDuration : 24mn 9s\nOverall bit rate : 1 077 Kbps\nWriting library : VirtualDub build 23538/release\n\nVideo\nID : 0\nFormat : MPEG-4 Visual\nFormat settings, BVOP : Yes\nFormat settings, QPel : No\nFormat settings, GMC : No warppoints\nFormat settings, Matrix : Default (H.263)\nMuxing mode : Packed bitstream\nCodec ID : DX50\nCodec ID/Hint : DivX 5\nDuration : 24mn 9s\nBit rate : 939 Kbps\nWidth : 640 pixels\nHeight : 480 pixels\nDisplay aspect ratio : 4:3\nFrame rate : 25.000 fps\nColor space : YUV\nChroma subsampling : 4:2:0\nBit depth : 8 bits\nScan type : Progressive\nCompression mode : Lossy\nBits/(Pixel*Frame) : 0.122\nStream size : 162 MiB (87%)\nWriting library : DivX 5.2.1 (WaffleDay) (UTC 2004-09-08)\n\nAudio\nID : 1\nFormat : MPEG Audio\nFormat version : Version 1\nFormat profile : Layer 3\nCodec ID : 55\nCodec ID/Hint : MP3\nDuration : 24mn 9s\nBit rate mode : Constant\nBit rate : 128 Kbps\nChannel(s) : 2 channels\nSampling rate : 44.1 KHz\nCompression mode : Lossy\nDelay relative to video : 26ms\nStream size : 22.1 MiB (12%)\nAlignment : Split accross interleaves\nInterleave, duration : 40 ms (1.00 video frame)\nInterleave, preload duration : 500 ms\n**************************************************************\n\n------------------5 episodes english---------------------------\nFormat : AVI\nFormat/Info : Audio Video Interleave\nFile size : 162 MiB\nDuration : 21mn 59s\nOverall bit rate : 1 031 Kbps\nWriting library : VirtualDub build 13870/release\n\nVideo\nID : 0\nFormat : MPEG-4 Visual\nFormat settings, BVOP : No\nFormat settings, QPel : No\nFormat settings, GMC : No warppoints\nFormat settings, Matrix : Default (H.263)\nCodec ID : DX50\nCodec ID/Hint : DivX 5\nDuration : 21mn 59s\nBit rate : 998 Kbps\nWidth : 480 pixels\nHeight : 384 pixels\nDisplay aspect ratio : 5:4\nFrame rate : 25.000 fps\nColor space : YUV\nChroma subsampling : 4:2:0\nBit depth : 8 bits\nScan type : Progressive\nCompression mode : Lossy\nBits/(Pixel*Frame) : 0.217\nStream size : 157 MiB (97%)\nWriting library : DivX 5.2.1 (DrDivX 106) (UTC 2004-09-08)\n\nAudio\nID : 1\nFormat : MPEG Audio\nFormat version : Version 2.5\nFormat profile : Layer 3\nMode : Joint stereo\nMode extension : Intensity Stereo + MS Stereo\nCodec ID : 55\nCodec ID/Hint : MP3\nDuration : 21mn 59s\nBit rate mode : Constant\nBit rate : 24.0 Kbps\nChannel(s) : 2 channels\nSampling rate : 12.0 KHz\nCompression mode : Lossy\nStream size : 3.78 MiB (2%)\nAlignment : Split accross interleaves\nInterleave, duration : 48 ms (1.20 video frame)\nInterleave, preload duration : 423 ms\n****************************************************************\n\nALL CREDITS go to original encoders: RedBAron, shaftyfx,Devil, guys from zero_fansubs.ru and others...","torrent":{"xt":"urn:btih:9edf67f8cb9230e7bcaa753eb38d3ec72b603fc4","amp;dn":"EXCLUSIVE----Sengoku+Majin+GoShogun+PACK---JAP%2C+ITA%2C+RUS%2C+EN%285%29","amp;tr":["udp%3A%2F%2Ftracker.openbittorrent.com%3A80","udp%3A%2F%2Fopen.demonii.com%3A1337","udp%3A%2F%2Ftracker.coppersurfer.tk%3A6969","udp%3A%2F%2Fexodus.desync.com%3A6969"],"infoHash":"9edf67f8cb9230e7bcaa753eb38d3ec72b603fc4","infoHashBuffer":{"type":"Buffer","data":[158,223,103,248,203,146,48,231,188,170,117,62,179,141,62,199,43,96,63,196]},"announce":[],"urlList":[]}}